<?xml version="1.0" encoding="UTF-8"?>
<svg version="1.1" xmlns="http://www.w3.org/2000/svg" width="192" height="192" viewBox="0 0 192 192">
  <rect width="192" height="192" fill="#ffffff"/>
  <g transform="translate(13.5, 29)">
    <path d="M0 0 C1.17866135 -0.01226624 1.17866135 -0.01226624 2.38113403 -0.02478027 C4.98373663 -0.04960652 7.58628463 -0.06614632 10.18896484 -0.08056641 C11.07965038 -0.08589008 11.97033592 -0.09121376 12.88801193 -0.09669876 C17.60567107 -0.12342281 22.32330386 -0.14279704 27.04101562 -0.15722656 C30.93643781 -0.17054647 34.83133377 -0.19836388 38.7265625 -0.23925781 C43.4374169 -0.28871093 48.14779528 -0.31336352 52.85889816 -0.32045364 C54.64897227 -0.32714575 56.43903662 -0.3423144 58.22896194 -0.36634445 C76.77341492 -0.60103203 76.77341492 -0.60103203 83.27490234 5.19287109 C88.32640292 10.79880819 89.42503969 15.62238953 89.43603516 22.96557617 C89.44348251 24.15146584 89.44348251 24.15146584 89.45108032 25.36131287 C89.46569215 27.97835153 89.47250255 30.59532957 89.47802734 33.21240234 C89.4837799 35.03220115 89.48953762 36.85199993 89.49530029 38.67179871 C89.5058077 42.48912844 89.51165197 46.30643713 89.51513672 50.1237793 C89.52061885 55.00967576 89.54464194 59.89529318 89.57310867 64.78110218 C89.59175455 68.54124254 89.59694171 72.30131596 89.5984726 76.06149864 C89.60149559 77.86238822 89.60951219 79.66327672 89.62265778 81.46412086 C89.63975805 83.98695577 89.63782838 86.5091127 89.63134766 89.03198242 C89.64056244 89.77245819 89.64977722 90.51293396 89.65927124 91.27584839 C89.61042741 97.36141045 87.94961838 101.23903572 84.02490234 105.81787109 C78.21147661 110.83855695 73.76797578 112.79514513 66.09570312 112.72631836 C65.30934479 112.73493393 64.52298645 112.7435495 63.71279907 112.75242615 C61.13159595 112.77499704 58.55148662 112.76836305 55.97021484 112.75927734 C54.16331666 112.76451757 52.35642121 112.77079551 50.54953003 112.77806091 C46.76856587 112.78844927 42.98797842 112.78392729 39.20703125 112.76928711 C34.37951795 112.75211783 29.553197 112.77557947 24.72581673 112.81077671 C20.9955162 112.83281919 17.26549783 112.83129246 13.53515244 112.8230114 C11.75628224 112.82219531 9.9773906 112.82899275 8.1985817 112.84378242 C-10.2018027 112.97331051 -10.2018027 112.97331051 -16.72509766 107.19287109 C-21.75754346 101.61130256 -22.87596682 96.78206637 -22.91796875 89.46777344 C-22.92614624 88.68199921 -22.93432373 87.89622498 -22.94274902 87.0866394 C-22.96757527 84.48403681 -22.98411507 81.8814888 -22.99853516 79.27880859 C-23.00385883 78.38812305 -23.00918251 77.49743752 -23.01466751 76.57976151 C-23.04139156 71.86210237 -23.06076579 67.14446958 -23.07519531 62.42675781 C-23.08851522 58.53133563 -23.11633263 54.63643967 -23.15722656 50.74121094 C-23.20667968 46.03035653 -23.23133227 41.31997815 -23.23842239 36.60887527 C-23.2451145 34.81880116 -23.26028315 33.02873682 -23.2843132 31.23881149 C-23.51900078 12.69435852 -23.51900078 12.69435852 -17.72509766 6.19287109 C-12.1417389 1.16171583 -7.31543596 0.04200849 0 0 Z " fill="#15803D" transform="translate(44.72509765625,8.80712890625)"/>
    <path d="M0 0 C1.17866135 -0.01226624 1.17866135 -0.01226624 2.38113403 -0.02478027 C4.98373663 -0.04960652 7.58628463 -0.06614632 10.18896484 -0.08056641 C11.07965038 -0.08589008 11.97033592 -0.09121376 12.88801193 -0.09669876 C17.60567107 -0.12342281 22.32330386 -0.14279704 27.04101562 -0.15722656 C30.93643781 -0.17054647 34.83133377 -0.19836388 38.7265625 -0.23925781 C43.4374169 -0.28871093 48.14779528 -0.31336352 52.85889816 -0.32045364 C54.64897227 -0.32714575 56.43903662 -0.3423144 58.22896194 -0.36634445 C76.77341492 -0.60103203 76.77341492 -0.60103203 83.27490234 5.19287109 C88.32640292 10.79880819 89.42503969 15.62238953 89.43603516 22.96557617 C89.44348251 24.15146584 89.44348251 24.15146584 89.45108032 25.36131287 C89.46569215 27.97835153 89.47250255 30.59532957 89.47802734 33.21240234 C89.4837799 35.03220115 89.48953762 36.85199993 89.49530029 38.67179871 C89.5058077 42.48912844 89.51165197 46.30643713 89.51513672 50.1237793 C89.52061885 55.00967576 89.54464194 59.89529318 89.57310867 64.78110218 C89.59175455 68.54124254 89.59694171 72.30131596 89.5984726 76.06149864 C89.60149559 77.86238822 89.60951219 79.66327672 89.62265778 81.46412086 C89.63975805 83.98695577 89.63782838 86.5091127 89.63134766 89.03198242 C89.64056244 89.77245819 89.64977722 90.51293396 89.65927124 91.27584839 C89.61042741 97.36141045 87.94961838 101.23903572 84.02490234 105.81787109 C78.21147661 110.83855695 73.76797578 112.79514513 66.09570312 112.72631836 C65.30934479 112.73493393 64.52298645 112.7435495 63.71279907 112.75242615 C61.13159595 112.77499704 58.55148662 112.76836305 55.97021484 112.75927734 C54.16331666 112.76451757 52.35642121 112.77079551 50.54953003 112.77806091 C46.76856587 112.78844927 42.98797842 112.78392729 39.20703125 112.76928711 C34.37951795 112.75211783 29.553197 112.77557947 24.72581673 112.81077671 C20.9955162 112.83281919 17.26549783 112.83129246 13.53515244 112.8230114 C11.75628224 112.82219531 9.9773906 112.82899275 8.1985817 112.84378242 C-10.2018027 112.97331051 -10.2018027 112.97331051 -16.72509766 107.19287109 C-21.75754346 101.61130256 -22.87596682 96.78206637 -22.91796875 89.46777344 C-22.92614624 88.68199921 -22.93432373 87.89622498 -22.94274902 87.0866394 C-22.96757527 84.48403681 -22.98411507 81.8814888 -22.99853516 79.27880859 C-23.00385883 78.38812305 -23.00918251 77.49743752 -23.01466751 76.57976151 C-23.04139156 71.86210237 -23.06076579 67.14446958 -23.07519531 62.42675781 C-23.08851522 58.53133563 -23.11633263 54.63643967 -23.15722656 50.74121094 C-23.20667968 46.03035653 -23.23133227 41.31997815 -23.23842239 36.60887527 C-23.2451145 34.81880116 -23.26028315 33.02873682 -23.2843132 31.23881149 C-23.51900078 12.69435852 -23.51900078 12.69435852 -17.72509766 6.19287109 C-12.1417389 1.16171583 -7.31543596 0.04200849 0 0 Z M-10.72509766 13.19287109 C-14.07860078 18.17804401 -15.22698523 21.3601673 -15.24267578 27.48583984 C-15.24968506 28.17787506 -15.25669434 28.86991028 -15.26391602 29.58291626 C-15.28138656 31.84915416 -15.26991382 34.11412259 -15.25634766 36.38037109 C-15.25904575 37.96785723 -15.26293081 39.55534175 -15.26794434 41.14282227 C-15.27382452 44.4614239 -15.26532475 47.77959335 -15.24658203 51.09814453 C-15.22379284 55.33835761 -15.23692396 59.57755779 -15.26087189 63.81773376 C-15.2753703 67.09329777 -15.2707055 70.36862415 -15.26036072 73.64419556 C-15.25770457 75.20700197 -15.26092385 76.76983041 -15.27027893 78.33261108 C-15.28051215 80.5222841 -15.26485268 82.71034826 -15.24267578 84.89990234 C-15.23949341 86.14231689 -15.23631104 87.38473145 -15.23303223 88.66479492 C-14.51089322 93.68071937 -12.56065214 97.12577874 -9.16317749 100.95181274 C-2.29400844 105.69545716 5.75264207 104.83825925 13.73583984 104.71630859 C15.33386508 104.7095108 16.93190039 104.70479365 18.52993774 104.70205688 C22.71504754 104.6887068 26.89929713 104.6444897 31.08410645 104.59448242 C34.51012656 104.55894922 37.93606233 104.54597966 41.36223412 104.53406334 C45.44515638 104.51930125 49.52798775 104.49408506 53.61083984 104.46630859 C54.3906358 104.46139782 55.17043175 104.45648705 55.97385788 104.45142746 C58.17115011 104.43519222 60.3682345 104.41179348 62.56542969 104.38574219 C63.81593109 104.37288177 65.0664325 104.36002136 66.35482788 104.34677124 C69.21116066 104.3912082 69.21116066 104.3912082 71.27490234 103.19287109 C71.50177734 102.05849609 71.72865234 100.92412109 71.96240234 99.75537109 C72.39552734 98.57974609 72.82865234 97.40412109 73.27490234 96.19287109 C76.83740234 94.88037109 76.83740234 94.88037109 80.27490234 94.19287109 C81.72714207 91.28839165 81.43440498 88.72803058 81.46777344 85.48339844 C81.47595093 84.79369965 81.48412842 84.10400085 81.49255371 83.3934021 C81.51741291 81.10521307 81.53392939 78.81708633 81.54833984 76.52880859 C81.55632536 75.35502089 81.55632536 75.35502089 81.5644722 74.15752029 C81.59121244 70.01159901 81.61058016 65.86570786 81.625 61.71972656 C81.63831388 58.29562514 81.66611685 54.87212325 81.70703125 51.44824219 C81.75649163 47.30911394 81.78113801 43.17052761 81.78822708 39.03111649 C81.79491929 37.45791334 81.81008836 35.88472132 81.83411789 34.31168747 C82.15399948 23.51135818 82.15399948 23.51135818 78.03384399 13.75479126 C72.94543248 9.23633975 68.75841138 7.69323552 61.99780273 7.65942383 C61.30737381 7.65080826 60.61694489 7.64219269 59.90559387 7.63331604 C57.64419059 7.61078434 55.38403963 7.61737054 53.12255859 7.62646484 C51.5374668 7.62122333 49.95237813 7.61494492 48.36729431 7.60768127 C45.05289992 7.59730059 41.73893548 7.60180426 38.42456055 7.61645508 C34.19326053 7.63363524 29.96331951 7.61014639 25.73217106 7.57496548 C22.46084222 7.55292294 19.18983512 7.55444943 15.91845512 7.56273079 C14.35925239 7.56354666 12.80002517 7.55675337 11.24089241 7.54195976 C-0.84362862 7.14703588 -0.84362862 7.14703588 -10.72509766 13.19287109 Z " fill="#15A349" transform="translate(44.72509765625,8.80712890625)"/>
    <path d="M0 0 C7.20860811 -0.06879902 14.41608124 -0.12855586 21.62475586 -0.16479492 C24.07792008 -0.17989881 26.53105724 -0.20038321 28.98413086 -0.22631836 C32.50641555 -0.26263057 36.02834381 -0.27971036 39.55078125 -0.29296875 C40.65086014 -0.30845261 41.75093903 -0.32393646 42.88435364 -0.33988953 C44.41560127 -0.34022942 44.41560127 -0.34022942 45.9777832 -0.34057617 C46.87713089 -0.34723801 47.77647858 -0.35389984 48.70307922 -0.36076355 C51.47083035 0.0739505 52.35047519 0.77031457 54 3 C54.375 5.5 54.375 5.5 54 8 C52.47381849 9.96065971 51.58895728 10.88694075 49.12068176 11.36076355 C48.41674789 11.35410172 47.71281403 11.34743988 46.98754883 11.34057617 C46.18694534 11.34034958 45.38634186 11.34012299 44.56147766 11.33988953 C43.70201035 11.32440567 42.84254303 11.30892181 41.95703125 11.29296875 C40.63163582 11.28660149 40.63163582 11.28660149 39.27946472 11.28010559 C36.45683339 11.26331043 33.63491559 11.22565697 30.8125 11.1875 C28.89909885 11.17245423 26.98568651 11.15876564 25.07226562 11.14648438 C20.38123541 11.11340419 15.69073869 11.0616163 11 11 C11 14.96 11 18.92 11 23 C25.19 23 39.38 23 54 23 C54 34.22 54 45.44 54 57 C46.79139189 57.06879902 39.58391876 57.12855586 32.37524414 57.16479492 C29.92207992 57.17989881 27.46894276 57.20038321 25.01586914 57.22631836 C21.49358445 57.26263057 17.97165619 57.27971036 14.44921875 57.29296875 C12.79910042 57.31619453 12.79910042 57.31619453 11.11564636 57.33988953 C9.58439873 57.34022942 9.58439873 57.34022942 8.0222168 57.34057617 C7.12286911 57.34723801 6.22352142 57.35389984 5.29692078 57.36076355 C2.52916965 56.9260495 1.64952481 56.22968543 0 54 C-0.375 51.5 -0.375 51.5 0 49 C1.52618151 47.03934029 2.41104272 46.11305925 4.87931824 45.63923645 C5.58325211 45.64589828 6.28718597 45.65256012 7.01245117 45.65942383 C7.81305466 45.65965042 8.61365814 45.65987701 9.43852234 45.66011047 C10.29798965 45.67559433 11.15745697 45.69107819 12.04296875 45.70703125 C13.36836418 45.71339851 13.36836418 45.71339851 14.72053528 45.71989441 C17.54316661 45.73668957 20.36508441 45.77434303 23.1875 45.8125 C25.10090115 45.82754577 27.01431349 45.84123436 28.92773438 45.85351562 C33.61876459 45.88659581 38.30926131 45.9383837 43 46 C43 42.04 43 38.08 43 34 C28.81 34 14.62 34 0 34 C0 22.78 0 11.56 0 0 Z " fill="#EFFCF3" transform="translate(51,35)"/>
    <path d="M0 0 C0.66 0.66 1.32 1.32 2 2 C1.8125 5.5 1.8125 5.5 1 9 C-2.22143276 11.14762184 -3.2595467 11.561068 -7 11 C-9.2855347 8.87208838 -9.92303658 7.52591672 -10.375 4.4375 C-10 2 -10 2 -8.9375 0.125 C-5.82785011 -1.68060316 -3.38260527 -0.79952488 0 0 Z " fill="#47DA7C" transform="translate(126,104)"/>
  </g>
</svg>
